<?xml version="1.0"?>
<svg version="1.1" xmlns="http://www.w3.org/2000/svg" xmlns:xlink="http://www.w3.org/1999/xlink" width="888" height="140">
    <desc iVinci="yes" version="4.6" gridStep="20" showGrid="no" snapToGrid="no" codePlatform="0" markedExportShape="1"/>
    <g id="Layer1" name="Layer 1" opacity="1">
        <g id="Shape1">
            <desc shapeID="1" type="0" basicInfo-basicType="1" basicInfo-roundedRectRadius="12" basicInfo-polygonSides="6" basicInfo-starPoints="5" bounding="rect(-109,-61.5001,218,123)" text="" font-familyName="Helvetica" font-pixelSize="20" font-bold="0" font-underline="0" font-alignment="1" strokeStyle="0" markerStart="0" markerEnd="0" shadowEnabled="0" shadowOffsetX="0" shadowOffsetY="2" shadowBlur="4" shadowOpacity="160" blurEnabled="0" blurRadius="4" transform="matrix(4.07339,0,0,1.13821,444,70)" pers-center="0,0" pers-size="0,0" pers-start="0,0" pers-end="0,0" locked="0" mesh="" flag=""/>
            <path id="shapePath1" d="M0.00012207,4.57764e-05 L888,4.57764e-05 L888,140 L0.00012207,140 L0.00012207,4.57764e-05 Z" style="stroke:none;fill-rule:evenodd;fill:#cdeb8b;fill-opacity:1;"/>
        </g>
        <g id="Shape2">
            <desc shapeID="2" type="2" basicInfo-basicType="0" basicInfo-roundedRectRadius="12" basicInfo-polygonSides="6" basicInfo-starPoints="5" bounding="rect(-59.5,-31.1182,119,62.2363)" text="ᛊ" font-familyName="Helvetica" font-pixelSize="46" font-bold="0" font-underline="0" font-alignment="1" strokeStyle="0" markerStart="0" markerEnd="0" shadowEnabled="0" shadowOffsetX="0" shadowOffsetY="2" shadowBlur="4" shadowOpacity="160" blurEnabled="0" blurRadius="4" transform="matrix(1,0,0,1,442.567,51.1946)" pers-center="0,0" pers-size="0,0" pers-start="0,0" pers-end="0,0" locked="0" mesh="" flag=""/>
            <path id="shapePath2" d="M441.094,44.6692 L441.094,44.8714 L449.225,52.261 L449.225,52.5081 L441.094,60.7737 L441.094,60.9534 L448.776,69.2415 L443.161,69.2415 L435.569,60.9534 L435.569,60.7737 L443.61,52.5081 L443.61,52.3059 L435.569,44.8714 L435.569,44.6692 L444.082,36.4036 L449.697,36.4036 L441.094,44.6692 Z" style="stroke:none;fill-rule:nonzero;fill:#ffffff;fill-opacity:1;"/>
        </g>
        <g id="Shape3">
            <desc shapeID="3" type="2" basicInfo-basicType="0" basicInfo-roundedRectRadius="12" basicInfo-polygonSides="6" basicInfo-starPoints="5" bounding="rect(-89.7948,-45.9063,179.59,91.8127)" text="Skaði" font-familyName="Helvetica Neue" font-pixelSize="20" font-bold="0" font-underline="0" font-alignment="1" strokeStyle="0" markerStart="0" markerEnd="0" shadowEnabled="0" shadowOffsetX="0" shadowOffsetY="2" shadowBlur="4" shadowOpacity="160" blurEnabled="0" blurRadius="4" transform="matrix(1,0,0,1,443.747,97.2121)" pers-center="0,0" pers-size="0,0" pers-start="0,0" pers-end="0,0" locked="0" mesh="" flag=""/>
            <path id="shapePath3" d="M428.598,94.2371 L430.398,94.2371 C430.372,93.4504 430.222,92.7738 429.948,92.2071 C429.675,91.6404 429.302,91.1704 428.828,90.7971 C428.355,90.4238 427.805,90.1504 427.178,89.9771 C426.552,89.8038 425.872,89.7171 425.138,89.7171 C424.485,89.7171 423.848,89.8004 423.228,89.9671 C422.608,90.1338 422.055,90.3871 421.568,90.7271 C421.082,91.0671 420.692,91.5004 420.398,92.0271 C420.105,92.5538 419.958,93.1771 419.958,93.8971 C419.958,94.5504 420.088,95.0938 420.348,95.5271 C420.608,95.9604 420.955,96.3138 421.388,96.5871 C421.822,96.8604 422.312,97.0804 422.858,97.2471 C423.405,97.4138 423.962,97.5604 424.528,97.6871 C425.095,97.8138 425.652,97.9371 426.198,98.0571 C426.745,98.1771 427.235,98.3338 427.668,98.5271 C428.102,98.7204 428.448,98.9704 428.708,99.2771 C428.968,99.5838 429.098,99.9838 429.098,100.477 C429.098,100.997 428.992,101.424 428.778,101.757 C428.565,102.09 428.285,102.354 427.938,102.547 C427.592,102.74 427.202,102.877 426.768,102.957 C426.335,103.037 425.905,103.077 425.478,103.077 C424.945,103.077 424.425,103.01 423.918,102.877 C423.412,102.744 422.968,102.537 422.588,102.257 C422.208,101.977 421.902,101.62 421.668,101.187 C421.435,100.754 421.318,100.237 421.318,99.6371 L419.518,99.6371 C419.518,100.504 419.675,101.254 419.988,101.887 C420.302,102.52 420.728,103.04 421.268,103.447 C421.808,103.854 422.435,104.157 423.148,104.357 C423.862,104.557 424.618,104.657 425.418,104.657 C426.072,104.657 426.728,104.58 427.388,104.427 C428.048,104.274 428.645,104.027 429.178,103.687 C429.712,103.347 430.148,102.907 430.488,102.367 C430.828,101.827 430.998,101.177 430.998,100.417 C430.998,99.7104 430.868,99.1238 430.608,98.6571 C430.348,98.1904 430.002,97.8038 429.568,97.4971 C429.135,97.1904 428.645,96.9471 428.098,96.7671 C427.552,96.5871 426.995,96.4304 426.428,96.2971 C425.862,96.1638 425.305,96.0404 424.758,95.9271 C424.212,95.8138 423.722,95.6704 423.288,95.4971 C422.855,95.3238 422.508,95.1004 422.248,94.8271 C421.988,94.5538 421.858,94.1971 421.858,93.7571 C421.858,93.2904 421.948,92.9004 422.128,92.5871 C422.308,92.2738 422.548,92.0238 422.848,91.8371 C423.148,91.6504 423.492,91.5171 423.878,91.4371 C424.265,91.3571 424.658,91.3171 425.058,91.3171 C426.045,91.3171 426.855,91.5471 427.488,92.0071 C428.122,92.4671 428.492,93.2104 428.598,94.2371 M433.111,90.0571 L433.111,104.337 L434.811,104.337 L434.811,100.417 L436.411,98.9371 L439.951,104.337 L442.111,104.337 L437.711,97.7571 L441.811,93.9971 L439.531,93.9971 L434.811,98.5171 L434.811,90.0571 L433.111,90.0571 M452.546,104.297 C452.253,104.47 451.846,104.557 451.326,104.557 C450.886,104.557 450.536,104.434 450.276,104.187 C450.016,103.94 449.886,103.537 449.886,102.977 C449.42,103.537 448.876,103.94 448.256,104.187 C447.636,104.434 446.966,104.557 446.246,104.557 C445.78,104.557 445.336,104.504 444.916,104.397 C444.496,104.29 444.133,104.124 443.826,103.897 C443.52,103.67 443.276,103.374 443.096,103.007 C442.916,102.64 442.826,102.197 442.826,101.677 C442.826,101.09 442.926,100.61 443.126,100.237 C443.326,99.8638 443.59,99.5604 443.916,99.3271 C444.243,99.0938 444.616,98.9171 445.036,98.7971 C445.456,98.6771 445.886,98.5771 446.326,98.4971 C446.793,98.4038 447.236,98.3338 447.656,98.2871 C448.076,98.2404 448.446,98.1738 448.766,98.0871 C449.086,98.0004 449.34,97.8738 449.526,97.7071 C449.713,97.5404 449.806,97.2971 449.806,96.9771 C449.806,96.6038 449.736,96.3038 449.596,96.0771 C449.456,95.8504 449.276,95.6771 449.056,95.5571 C448.836,95.4371 448.59,95.3571 448.316,95.3171 C448.043,95.2771 447.773,95.2571 447.506,95.2571 C446.786,95.2571 446.186,95.3938 445.706,95.6671 C445.226,95.9404 444.966,96.4571 444.926,97.2171 L443.226,97.2171 C443.253,96.5771 443.386,96.0371 443.626,95.5971 C443.866,95.1571 444.186,94.8004 444.586,94.5271 C444.986,94.2538 445.443,94.0571 445.956,93.9371 C446.47,93.8171 447.02,93.7571 447.606,93.7571 C448.073,93.7571 448.536,93.7904 448.996,93.8571 C449.456,93.9238 449.873,94.0604 450.246,94.2671 C450.62,94.4738 450.92,94.7638 451.146,95.1371 C451.373,95.5104 451.486,95.9971 451.486,96.5971 L451.486,101.917 C451.486,102.317 451.51,102.61 451.556,102.797 C451.603,102.984 451.76,103.077 452.026,103.077 C452.173,103.077 452.346,103.044 452.546,102.977 L452.546,104.297 M449.786,98.9971 C449.573,99.1571 449.293,99.2738 448.946,99.3471 C448.6,99.4204 448.236,99.4804 447.856,99.5271 C447.476,99.5738 447.093,99.6271 446.706,99.6871 C446.32,99.7471 445.973,99.8438 445.666,99.9771 C445.36,100.11 445.11,100.3 444.916,100.547 C444.723,100.794 444.626,101.13 444.626,101.557 C444.626,101.837 444.683,102.074 444.796,102.267 C444.91,102.46 445.056,102.617 445.236,102.737 C445.416,102.857 445.626,102.944 445.866,102.997 C446.106,103.05 446.36,103.077 446.626,103.077 C447.186,103.077 447.666,103 448.066,102.847 C448.466,102.694 448.793,102.5 449.046,102.267 C449.3,102.034 449.486,101.78 449.606,101.507 C449.726,101.234 449.786,100.977 449.786,100.737 L449.786,98.9971 M458.481,95.7171 C459.067,95.7171 459.571,95.8104 459.991,95.9971 C460.411,96.1838 460.754,96.4371 461.021,96.7571 C461.287,97.0771 461.484,97.4438 461.611,97.8571 C461.737,98.2704 461.801,98.7104 461.801,99.1771 C461.801,99.8038 461.717,100.36 461.551,100.847 C461.384,101.334 461.154,101.74 460.861,102.067 C460.567,102.394 460.224,102.644 459.831,102.817 C459.437,102.99 459.021,103.077 458.581,103.077 C458.141,103.077 457.724,102.99 457.331,102.817 C456.937,102.644 456.594,102.394 456.301,102.067 C456.007,101.74 455.777,101.334 455.611,100.847 C455.444,100.36 455.361,99.8038 455.361,99.1771 C455.361,98.1504 455.624,97.3171 456.151,96.6771 C456.677,96.0371 457.454,95.7171 458.481,95.7171 M458.281,94.2171 C457.521,94.2171 456.847,94.3538 456.261,94.6271 C455.674,94.9004 455.181,95.2671 454.781,95.7271 C454.381,96.1871 454.077,96.7138 453.871,97.3071 C453.664,97.9004 453.561,98.5238 453.561,99.1771 C453.561,99.9371 453.667,100.644 453.881,101.297 C454.094,101.95 454.414,102.52 454.841,103.007 C455.267,103.494 455.794,103.874 456.421,104.147 C457.047,104.42 457.767,104.557 458.581,104.557 C459.407,104.557 460.131,104.42 460.751,104.147 C461.371,103.874 461.894,103.494 462.321,103.007 C462.747,102.52 463.067,101.95 463.281,101.297 C463.494,100.644 463.601,99.9371 463.601,99.1771 C463.601,97.6438 463.324,96.2338 462.771,94.9471 C462.217,93.6604 461.334,92.5171 460.121,91.5171 L462.421,90.4571 L461.721,89.7171 L459.321,90.8371 C459.054,90.6238 458.777,90.4171 458.491,90.2171 C458.204,90.0171 457.967,89.8504 457.781,89.7171 L456.381,90.6171 C456.567,90.7238 456.794,90.8638 457.061,91.0371 C457.327,91.2104 457.567,91.3904 457.781,91.5771 L455.601,92.5971 L456.361,93.3971 L458.661,92.3171 C458.821,92.4238 459.007,92.5771 459.221,92.7771 C459.434,92.9771 459.654,93.2104 459.881,93.4771 C460.107,93.7438 460.327,94.0338 460.541,94.3471 C460.754,94.6604 460.941,94.9904 461.101,95.3371 L461.061,95.3371 C460.701,94.9238 460.281,94.6338 459.801,94.4671 C459.321,94.3004 458.814,94.2171 458.281,94.2171 M467.389,92.1371 L467.389,90.0571 L465.69,90.0571 L465.69,92.1371 L467.389,92.1371 M465.69,93.9971 L465.69,104.337 L467.389,104.337 L467.389,93.9971 L465.69,93.9971 Z" style="stroke:none;fill-rule:nonzero;fill:#ffffff;fill-opacity:1;"/>
        </g>
    </g>
</svg>
